# xmcd CD database file
#
# Track frame offsets:
#	182
#	14875
#	37300
#	64475
#	87975
#	100600
#	121875
#	143575
#	164525
#	192750
#	212425
#	233800
#	255750
#	279300
#	301200
#
# Disc length: 4201 seconds
#
# Revision: 0
# Processed by: cddbd v1.5.2PL0 Copyright (c) Steve Scherf et al.
# Submitted via: CDex 1.70beta2
#
DISCID=cb10670f
DTITLE=The new orleans four plus one - Four or five times
DYEAR=1900
DGENRE=Jazz
TTITLE0=Down by the riverside
TTITLE1=Baby Face
TTITLE2=Bucket´s got a hole in it
TTITLE3=High Society
TTITLE4=Lord, Lord, Lord
TTITLE5=Bogalusa Strut
TTITLE6=Just a closer walk with thee
TTITLE7=When your hair has turned to silver
TTITLE8=Bugle Boy March
TTITLE9=Earl´s Blues
TTITLE10=Isle of Capri
TTITLE11=Give me five minutes more
TTITLE12=The old rugged cross
TTITLE13=Take your burden to the Lord
TTITLE14=Four or five times
EXTD=
EXTT0=
EXTT1=
EXTT2=
EXTT3=
EXTT4=
EXTT5=
EXTT6=
EXTT7=
EXTT8=
EXTT9=
EXTT10=
EXTT11=
EXTT12=
EXTT13=
EXTT14=
PLAYORDER=
